<?xml version="1.0" encoding="UTF-8"?>
<svg version="1.1" xmlns="http://www.w3.org/2000/svg" width="960" height="959">
<path d="M0 0 C0.58942383 0.49177734 1.17884766 0.98355469 1.78613281 1.49023438 C20.15765128 16.82200856 37.85608023 33.37105001 52.74609375 52.16015625 C54.46131073 54.3212702 56.20004433 56.44541702 57.97265625 58.55859375 C70.36291103 73.40405168 81.06788009 89.42386813 91 106 C91.46229004 106.76973145 91.92458008 107.53946289 92.40087891 108.33251953 C129.88306853 171.19496977 149.19029603 243.72471668 149.25 316.8125 C149.25101212 317.95528412 149.25101212 317.95528412 149.25204468 319.12115479 C149.17020005 378.46386068 136.28691527 435.91855652 112 490 C111.43031494 491.28390625 111.43031494 491.28390625 110.84912109 492.59375 C94.99407377 528.13411651 72.74273861 560.90358584 47 590 C46.23171875 590.86882813 45.4634375 591.73765625 44.671875 592.6328125 C42.46357716 595.10324641 40.23466261 597.55339768 38 600 C37.01947255 601.0858845 36.03900754 602.17182538 35.05859375 603.2578125 C30.18847988 608.62436082 25.35148848 613.81166537 19.78125 618.46875 C17.97565261 620.02093021 16.3391951 621.66097678 14.6875 623.375 C10.62137827 627.49582292 6.15129231 631.0605069 1.63671875 634.67529297 C-0.1114935 636.09023922 -1.83783035 637.52912252 -3.5625 638.97265625 C-24.67037956 656.55036419 -47.77804976 671.11962176 -72 684 C-72.88365234 684.47050781 -73.76730469 684.94101562 -74.67773438 685.42578125 C-122.71068416 710.76257731 -176.83085125 726.07708246 -231 730 C-231.73025391 730.05639648 -232.46050781 730.11279297 -233.21289062 730.17089844 C-286.85474158 734.17862293 -340.86129942 727.50549991 -392 711 C-393.00256836 710.67773438 -394.00513672 710.35546875 -395.03808594 710.0234375 C-414.6924581 703.6300814 -433.66522379 695.57835602 -451.99707031 686.03613281 C-454.13284657 684.93127732 -456.28060149 683.85215439 -458.4296875 682.7734375 C-481.43152665 671.10212498 -503.20104711 656.53644369 -523 640 C-523.49806152 639.58540527 -523.99612305 639.17081055 -524.50927734 638.74365234 C-531.81604012 632.65139499 -538.98642635 626.42910918 -546 620 C-546.55365234 619.49678223 -547.10730469 618.99356445 -547.67773438 618.47509766 C-560.25470649 607.03685139 -560.25470649 607.03685139 -565.11328125 601.19921875 C-567.18746941 598.78147975 -569.36152653 596.48147142 -571.55273438 594.17016602 C-578.00024331 587.35075675 -583.95265287 580.29690781 -589.61865234 572.81835938 C-591.03196096 570.95792767 -592.46229484 569.11151232 -593.89453125 567.265625 C-606.24829345 551.22058877 -616.85567092 534.12327655 -626.65820312 516.42089844 C-627.49976669 514.90253156 -628.34662118 513.3870723 -629.20117188 511.87597656 C-662.02530724 453.82219815 -677.27804884 384.97885554 -677.1875 318.625 C-677.18659363 317.38426727 -677.18659363 317.38426727 -677.18566895 316.11846924 C-676.99809235 220.85472121 -643.52056118 126.93475334 -582 54 C-581.50822266 53.41057617 -581.01644531 52.82115234 -580.50976562 52.21386719 C-547.40861537 12.54993881 -507.47624301 -20.23544644 -462.04980469 -44.88476562 C-460.65642405 -45.64286029 -459.26655265 -46.40743321 -457.87988281 -47.17773438 C-364.82141431 -98.84452824 -250.45870672 -107.83318536 0 0 Z " fill="#000000" transform="translate(744,161)"/>
<path d="M0 0 C0.75079834 -0.00133942 1.50159668 -0.00267883 2.27514648 -0.00405884 C17.44856813 0.00173773 32.3302766 1.21590408 47.375 3.25 C48.2918457 3.3727832 49.20869141 3.49556641 50.15332031 3.62207031 C55.58567539 4.3704365 60.9820083 5.25890785 66.375 6.25 C67.10170898 6.37955078 67.82841797 6.50910156 68.57714844 6.64257812 C96.52095964 11.71436148 123.72418779 21.15732577 149.375 33.25 C150.22964844 33.65202637 151.08429688 34.05405273 151.96484375 34.46826172 C181.69913864 48.58557843 208.98854528 67.01704657 233.23046875 89.2890625 C235.18134883 91.07292734 237.17248048 92.78952794 239.1875 94.5 C247.87006521 102.07077332 255.96303933 110.44016956 263.375 119.25 C264.56609375 120.60738281 264.56609375 120.60738281 265.78125 121.9921875 C295.25015858 155.77282858 316.87835 196.01561493 331.375 238.25 C331.70483887 239.20277832 332.03467773 240.15555664 332.37451172 241.13720703 C336.57133879 253.45565136 339.54905829 265.96103178 342.1875 278.6875 C342.40857925 279.74736618 342.40857925 279.74736618 342.63412476 280.8286438 C345.19249262 293.20902384 347.375 305.57417382 347.375 318.25 C275.765 318.25 204.155 318.25 130.375 318.25 C128.725 312.31 127.075 306.37 125.375 300.25 C119.14696376 284.56013946 111.54130969 270.95850981 100.375 258.25 C99.33085938 257.00669922 99.33085938 257.00669922 98.265625 255.73828125 C77.71402073 231.84891644 46.37301145 215.69290986 15.01220703 212.44189453 C-23.36044373 209.64973535 -59.56476507 218.01316928 -89.1875 243.4375 C-91.35674311 245.35022056 -93.49631987 247.29235469 -95.625 249.25 C-96.30949219 249.86359375 -96.99398437 250.4771875 -97.69921875 251.109375 C-116.00786235 268.35108133 -128.73935209 293.82176044 -133.625 318.25 C-203.585 318.25 -273.545 318.25 -345.625 318.25 C-345.625 305.84526775 -345.625 305.84526775 -344.9609375 301.3671875 C-344.81164795 300.35825439 -344.6623584 299.34932129 -344.50854492 298.30981445 C-344.3407251 297.25882568 -344.17290527 296.20783691 -344 295.125 C-343.82251221 294.0011792 -343.64502441 292.8773584 -343.4621582 291.71948242 C-331.25167236 217.51889322 -295.09279357 151.56914856 -242.25 98.6875 C-241.38117188 97.80642578 -240.51234375 96.92535156 -239.6171875 96.01757812 C-233.60158526 89.98862765 -227.28543699 84.55064654 -220.625 79.25 C-219.41650272 78.24942771 -218.21036516 77.24599038 -217.0078125 76.23828125 C-201.71889348 63.60307844 -184.92603082 52.90871072 -167.625 43.25 C-166.91263184 42.84861816 -166.20026367 42.44723633 -165.46630859 42.03369141 C-127.19973368 20.63322592 -85.39125746 8.63107874 -42.1875 2.5625 C-40.92993896 2.38340088 -40.92993896 2.38340088 -39.64697266 2.20068359 C-26.484413 0.43699759 -13.2626126 0.0142168 0 0 Z " fill="#FE1B1B" transform="translate(481.625,132.75)"/>
<path d="M0 0 C71.61 0 143.22 0 217 0 C218.65 5.94 220.3 11.88 222 18 C223.16155289 21.16000104 224.27708388 24.10311084 225.6875 27.125 C226.02289795 27.8574292 226.3582959 28.5898584 226.70385742 29.34448242 C232.96691261 42.62970769 241.12244845 54.17959126 251 65 C251.99773437 66.10408203 251.99773437 66.10408203 253.015625 67.23046875 C273.67363662 88.97345997 306.47391089 105.36057805 336.66748047 106.26382446 C340.15379338 106.32736174 343.63824491 106.33045952 347.125 106.3125 C348.2226619 106.30976578 348.2226619 106.30976578 349.34249878 106.30697632 C360.17028802 106.26151563 370.48717947 105.82078913 381 103 C381.65097656 102.82839355 382.30195312 102.65678711 382.97265625 102.47998047 C417.08125888 93.28741632 447.25602758 71.90739299 465.11376953 41.07714844 C472.29537134 28.01554914 477.08077652 14.37048611 481 0 C550.96 0 620.92 0 693 0 C693 68.66423013 658.68933663 138.87721556 616 191 C615.55205078 191.55236328 615.10410156 192.10472656 614.64257812 192.67382812 C607.23937031 201.73619458 599.12073072 210.08564443 590.875 218.375 C590.36997955 218.88528748 589.86495911 219.39557495 589.34463501 219.92132568 C582.57743168 226.74305782 575.53239285 233.02105028 568 239 C566.82606985 239.97644658 565.65498916 240.95634149 564.48828125 241.94140625 C496.61008941 298.37612605 404.72477975 324.44645925 317.25 317.1875 C313.49427387 316.83635105 309.7470981 316.43306126 306 316 C305.13616699 315.90348145 304.27233398 315.80696289 303.38232422 315.70751953 C278.99584755 312.88995848 255.23006764 306.830787 232 299 C231.10684082 298.69900391 230.21368164 298.39800781 229.29345703 298.08789062 C199.47499743 287.82558316 170.48273539 272.51546576 145 254 C144.45021484 253.60184082 143.90042969 253.20368164 143.33398438 252.79345703 C133.21252743 245.42481393 123.56806305 237.53759827 114.3203125 229.1015625 C112.30602269 227.27717206 110.25851386 225.50906198 108.1875 223.75 C99.50493479 216.17922668 91.41196067 207.80983044 84 199 C83.2059375 198.09507812 82.411875 197.19015625 81.59375 196.2578125 C73.76681673 187.28445949 66.82023283 177.75229555 60 168 C59.5580127 167.37399902 59.11602539 166.74799805 58.66064453 166.10302734 C36.02212068 133.89992605 20.66651362 97.73193174 10 60 C9.76829102 59.19771973 9.53658203 58.39543945 9.29785156 57.56884766 C6.07569458 46.27710371 4.0177682 34.83553554 2.1875 23.25 C2.07613708 22.55214386 1.96477417 21.85428772 1.85003662 21.13528442 C1.53127078 19.11737588 1.22260131 17.09821108 0.91796875 15.078125 C0.74031982 13.90668945 0.5626709 12.73525391 0.37963867 11.52832031 C-0.03168438 7.7055288 0 3.84485652 0 0 Z " fill="#FEFEFE" transform="translate(131,507)"/>
<path d="M0 0 C58.76554032 12.44061578 113.60770191 40.38688534 157.85546875 81.0390625 C159.80634883 82.82292734 161.79748048 84.53952794 163.8125 86.25 C172.49506521 93.82077332 180.58803933 102.19016956 188 111 C189.19109375 112.35738281 189.19109375 112.35738281 190.40625 113.7421875 C219.87515858 147.52282858 241.50335 187.76561493 256 230 C256.32983887 230.95277832 256.65967773 231.90555664 256.99951172 232.88720703 C261.19633879 245.20565136 264.17405829 257.71103178 266.8125 270.4375 C266.95988617 271.14407745 267.10727234 271.85065491 267.25912476 272.5786438 C269.81749262 284.95902384 272 297.32417382 272 310 C242.3 310 212.6 310 182 310 C180.35 295.81 178.7 281.62 177 267 C173.33242733 247.2358584 169.10690003 228.10958008 163 209 C162.72720215 208.12166504 162.4544043 207.24333008 162.17333984 206.33837891 C147.8807751 160.35471837 124.50408164 117.22369809 94 80 C93.5467334 79.44231934 93.0934668 78.88463867 92.62646484 78.31005859 C85.36630838 69.4449987 77.44881791 61.24355677 69.375 53.125 C68.89389771 52.63863068 68.41279541 52.15226135 67.91711426 51.65115356 C61.29423903 44.97223602 54.39351714 38.81898491 47 33 C46.2795752 32.42556152 45.55915039 31.85112305 44.81689453 31.25927734 C31.30986418 20.55132584 17.01304866 11.31749552 2.24609375 2.4609375 C1.50488281 1.97882813 0.76367188 1.49671875 0 1 C0 0.67 0 0.34 0 0 Z " fill="#DE1717" transform="translate(557,141)"/>
<path d="M0 0 C28.05 0 56.1 0 85 0 C85 68.66423013 50.68933663 138.87721556 8 191 C7.55205078 191.55236328 7.10410156 192.10472656 6.64257812 192.67382812 C-0.76062969 201.73619458 -8.87926928 210.08564443 -17.125 218.375 C-17.63002045 218.88528748 -18.13504089 219.39557495 -18.65536499 219.92132568 C-25.42256832 226.74305782 -32.46760715 233.02105028 -40 239 C-41.17393015 239.97644658 -42.34501084 240.95634149 -43.51171875 241.94140625 C-78.02072327 270.6325948 -119.49641614 291.41168516 -162.375 304.1875 C-163.38554443 304.49139648 -164.39608887 304.79529297 -165.43725586 305.10839844 C-166.3731958 305.37555664 -167.30913574 305.64271484 -168.2734375 305.91796875 C-169.50199463 306.27024536 -169.50199463 306.27024536 -170.75537109 306.62963867 C-173.17522589 307.02891208 -174.69231572 306.76845688 -177 306 C-176.24662354 305.53327881 -176.24662354 305.53327881 -175.47802734 305.05712891 C-160.61399933 295.82428725 -146.39005263 286.30135361 -133 275 C-131.99195313 274.17757813 -130.98390625 273.35515625 -129.9453125 272.5078125 C-122.30700948 266.20795707 -115.20759113 259.41691281 -108.1875 252.4375 C-107.31625488 251.57543945 -106.44500977 250.71337891 -105.54736328 249.82519531 C-99.60782353 243.8574097 -94.25559828 237.57155205 -89 231 C-87.92774403 229.71752197 -86.8514314 228.43841521 -85.76953125 227.1640625 C-54.49776573 189.94318621 -30.48991592 143.12088662 -17.625 96.3125 C-17.32609863 95.22799561 -17.02719727 94.14349121 -16.71923828 93.02612305 C-15.80505589 89.68613906 -14.90152902 86.34341889 -14 83 C-13.72865234 82.00742187 -13.45730469 81.01484375 -13.17773438 79.9921875 C-9.97413028 68.19529302 -7.37148019 56.36358996 -5.3125 44.3125 C-5.12220215 43.21784424 -4.9319043 42.12318848 -4.73583984 40.99536133 C-2.52132187 27.37520695 -1.42523466 13.77726835 0 0 Z " fill="#DEDEDE" transform="translate(739,507)"/>
<path d="M0 0 C1.13759766 -0.01160156 2.27519531 -0.02320313 3.44726562 -0.03515625 C20.37728664 0.0227902 36.34453662 5.75693355 49.5625 16.375 C50.80966797 17.37660156 50.80966797 17.37660156 52.08203125 18.3984375 C66.61840663 30.76887062 77.20495724 48.25916067 79.5625 67.375 C81.35960706 89.876196 77.66296844 110.72203473 63.5625 128.875 C62.24973964 130.39303756 60.91729944 131.89435951 59.5625 133.375 C58.97210937 134.05691406 58.38171875 134.73882813 57.7734375 135.44140625 C45.94334372 148.30348693 27.71655949 157.01596558 10.39941406 158.67871094 C7.17657414 158.81080268 3.97534738 158.84304124 0.75 158.8125 C-0.38856445 158.80420166 -1.52712891 158.79590332 -2.70019531 158.78735352 C-23.30087716 158.37516385 -41.21273285 150.03117333 -56.125 135.8125 C-73.55595329 117.53125631 -79.08275697 96.72217059 -78.67578125 72.16796875 C-78.02180043 52.02342659 -67.43840652 33.39587924 -53.04296875 19.5703125 C-44.58157991 12.4409264 -34.94256658 6.88095401 -24.4375 3.375 C-23.27988159 2.98658936 -23.27988159 2.98658936 -22.09887695 2.59033203 C-14.66620959 0.30720478 -7.74215248 -0.0786893 0 0 Z " fill="#FEFEFE" transform="translate(479.4375,399.625)"/>
</svg>
